<?xml version="1.0" encoding="UTF-8"?>
<!DOCTYPE svg PUBLIC "-//W3C//DTD SVG 1.1//EN" "http://www.w3.org/Graphics/SVG/1.1/DTD/svg11.dtd">
<svg version="1.1" xmlns="http://www.w3.org/2000/svg" xmlns:xlink="http://www.w3.org/1999/xlink" x="0" y="0" width="1138" height="808" viewBox="0, 0, 1138, 808">
  <defs>
    <clipPath id="Clip_1">
      <path d="M0,808 L1137.896,808 L1137.896,1.16 L0,1.16 z"/>
    </clipPath>
  </defs>
  <g id="Layer_1">
    <path d="M827.778,516.608 C823.194,516.482 819.454,516.638 816.654,516.544 C832.518,518.366 848.228,519.58 863.464,519.58 L863.488,519.58 C880.852,519.58 897.71,518.068 913.984,515.74 C880.876,520.174 850.594,518.844 827.778,516.608" fill="#5F605D"/>
    <path d="M765.242,250.124 L765.71,256.264 C771.478,268.024 776.012,279.724 778.798,291.056 C782.81,304.53 784.932,317.624 784.422,329.87 C783.638,348.728 776.642,364.306 763.62,376.24 L776.482,414.456 L782.292,417.486 L780.618,426.74 L810.486,515.49 C811.376,515.606 812.262,515.704 813.15,515.812 C813.894,515.754 814.786,515.686 815.852,515.602 C816.38,515.566 816.966,515.524 817.574,515.478 C816.432,515.336 815.304,515.196 814.214,515.05 L806.29,494.88 C806.238,494.874 805.976,494.868 805.926,494.862 L801.952,484.916 L801.952,484.908 L794.316,464.186 C799.684,463.592 805.322,462.962 810.986,462.286 L783.694,380.866 C794.952,367.06 801.262,349.908 802.06,330.726 C803.75,290.068 754.628,159.248 704.126,130.22 L755.864,36.976 L902.46,182.17 L905.456,183.69 C910.134,186.068 1004.514,233.904 1084.2,263.526 C1084.636,257.498 1084.886,251.298 1084.882,244.886 L1085.322,245.022 C1043.132,229.022 996.902,208.076 963.022,192.05 C960.048,193.982 958.2,194.462 958.2,194.462 L955.614,188.532 C930.62,176.61 913.94,168.158 913.47,167.916 L912.942,167.654 L912.522,167.24 L755.69,11.898 L657.96,111.54 C669.172,123.1 711.84,168.354 744.562,220.106 C750.702,229.252 756.404,238.576 761.418,247.912 L765.242,250.124" fill="#5F605D"/>
    <path d="M1130.264,294.412 C1129.836,309.126 1127.912,327.358 1122.684,347.134 C1127.338,330.118 1129.892,312.454 1130.264,294.412" fill="#5F605D"/>
    <path d="M903.07,256.638 C898.636,256.638 895.042,253.044 895.042,248.612 C895.042,244.178 898.636,240.584 903.07,240.584 C907.502,240.584 911.096,244.178 911.096,248.612 C911.096,253.044 907.502,256.638 903.07,256.638 M874.796,414.456 C871.45,414.456 868.738,411.744 868.738,408.398 C868.738,405.052 871.45,402.342 874.796,402.342 C878.142,402.342 880.856,405.052 880.856,408.398 C880.856,411.744 878.142,414.456 874.796,414.456 M859.146,196.862 C857.472,196.862 856.118,195.506 856.118,193.834 C856.118,192.16 857.472,190.802 859.146,190.802 C860.82,190.802 862.176,192.16 862.176,193.834 C862.176,195.506 860.82,196.862 859.146,196.862 M839.458,333.174 C837.782,333.174 836.428,331.818 836.428,330.144 C836.428,328.472 837.782,327.116 839.458,327.116 C841.128,327.116 842.486,328.472 842.486,330.144 C842.486,331.818 841.128,333.174 839.458,333.174 M776.348,109.518 C773.838,109.518 771.804,107.486 771.804,104.976 C771.804,102.466 773.838,100.432 776.348,100.432 C778.86,100.432 780.892,102.466 780.892,104.976 C780.892,107.486 778.86,109.518 776.348,109.518 M757.67,174.142 C755.996,174.142 754.64,172.786 754.64,171.112 C754.64,169.44 755.996,168.084 757.67,168.084 C759.342,168.084 760.698,169.44 760.698,171.112 C760.698,172.786 759.342,174.142 757.67,174.142 M1052.004,280.67 C1054.514,280.67 1056.546,282.702 1056.546,285.212 C1056.546,287.72 1054.514,289.756 1052.004,289.756 C1049.494,289.756 1047.458,287.72 1047.458,285.212 C1047.458,282.702 1049.494,280.67 1052.004,280.67 M1084.196,263.526 C1004.514,233.904 910.136,186.068 905.458,183.69 L902.464,182.174 L755.872,36.976 L704.138,130.22 C754.64,159.252 803.778,290.066 802.088,330.726 C801.292,349.906 795.004,367.06 783.746,380.866 L811.09,462.286 C918.012,449.504 1072.856,418.988 1084.196,263.526" fill="#797A76"/>
    <path d="M806.136,494.862 C806.184,494.868 806.238,494.874 806.29,494.88 L802.372,484.914 L806.136,494.862" fill="#90918D"/>
    <path d="M1084.198,263.526 C1072.856,418.988 918.012,449.504 811.09,462.286 C805.426,462.962 799.89,463.592 794.526,464.186 L802.37,484.908 C945.308,478.408 1102.482,430.64 1102.488,250.286 L1085.32,245.022 L1084.882,244.888 C1084.886,251.298 1084.638,257.494 1084.198,263.526" fill="#90918D"/>
    <path d="M1111.83,253.154 L1111.07,252.92 L1111.834,253.17 C1111.832,253.166 1111.83,253.154 1111.83,253.154" fill="#90918D"/>
    <path d="M801.95,484.908 L801.95,484.914 L806.078,494.88 L814.11,515.05 C815.202,515.196 816.378,515.336 817.522,515.478 C820.774,515.238 825.126,514.902 830.416,514.572 C836.7,514.288 844.312,513.368 853.02,512.54 C861.742,511.85 871.504,510.342 882.146,508.944 C887.484,508.352 892.958,507.152 898.652,506.17 C901.496,505.672 904.392,505.162 907.328,504.646 C910.272,504.17 913.198,503.376 916.198,502.746 C928.196,500.22 940.672,496.868 953.382,492.936 C956.54,491.886 959.724,490.83 962.932,489.766 C964.526,489.21 966.162,488.748 967.736,488.118 C969.314,487.486 970.896,486.856 972.482,486.222 C975.656,484.958 978.848,483.688 982.056,482.41 C985.262,481.132 988.352,479.562 991.528,478.144 C993.106,477.418 994.69,476.69 996.274,475.96 L998.652,474.868 L1000.96,473.624 C1004.036,471.964 1007.12,470.3 1010.208,468.63 L1012.528,467.38 C1013.292,466.952 1014.02,466.456 1014.766,465.998 L1019.23,463.194 L1023.698,460.39 C1024.438,459.916 1025.198,459.47 1025.922,458.972 L1028.056,457.43 L1036.64,451.318 C1039.446,449.214 1042.084,446.906 1044.812,444.716 C1046.15,443.594 1047.546,442.536 1048.836,441.368 L1052.64,437.786 L1056.436,434.22 C1057.062,433.622 1057.71,433.044 1058.32,432.432 L1060.084,430.536 C1069.792,420.7 1078.112,409.854 1085.236,398.772 C1092.302,387.65 1098.282,376.29 1102.836,365.018 C1104.098,362.246 1105.048,359.398 1106.098,356.63 C1106.614,355.246 1107.124,353.868 1107.63,352.504 C1108.114,351.126 1108.54,349.746 1108.996,348.386 C1109.864,345.652 1110.832,342.996 1111.574,340.324 C1112.324,337.652 1113.062,335.034 1113.786,332.462 C1115.06,327.28 1116.32,322.308 1117.256,317.522 C1118.32,312.752 1119.092,308.182 1119.842,303.884 C1121.194,295.268 1122.232,287.704 1122.868,281.452 C1123.54,275.198 1123.986,270.272 1124.264,266.9 C1124.55,263.534 1124.704,261.736 1124.704,261.736 C1124.704,261.736 1124.762,263.536 1124.87,266.916 C1124.928,268.608 1124.946,270.69 1124.978,273.142 C1125.038,275.6 1125.02,278.418 1124.96,281.578 C1124.89,287.9 1124.606,295.584 1123.846,304.386 C1123.094,313.19 1121.794,323.104 1119.69,333.826 C1117.552,344.54 1114.492,356.04 1110.186,367.872 C1105.958,379.73 1100.334,391.884 1093.152,403.678 C1092.266,405.16 1091.374,406.646 1090.48,408.14 C1089.548,409.61 1088.522,411.028 1087.542,412.48 C1086.546,413.928 1085.552,415.38 1084.55,416.838 L1083.046,419.028 C1082.524,419.744 1081.958,420.43 1081.414,421.132 C1079.214,423.932 1077.002,426.748 1074.778,429.58 C1072.354,432.242 1069.916,434.918 1067.472,437.604 L1065.628,439.618 C1064.992,440.268 1064.32,440.88 1063.668,441.518 L1055.734,449.1 C1054.388,450.342 1052.938,451.468 1051.542,452.662 C1048.702,454.986 1045.94,457.434 1043.014,459.666 L1034.068,466.156 L1031.82,467.762 C1031.056,468.278 1030.26,468.738 1029.48,469.228 L1024.784,472.122 L1020.09,475.012 C1019.304,475.484 1018.538,475.99 1017.738,476.434 L1015.31,477.718 C1012.074,479.43 1008.848,481.136 1005.628,482.84 L1003.214,484.108 L1000.734,485.224 C999.084,485.968 997.436,486.712 995.79,487.452 C994.144,488.194 992.502,488.932 990.864,489.668 C989.216,490.382 987.614,491.202 985.926,491.786 C982.574,493.022 979.242,494.25 975.932,495.472 C974.274,496.082 972.624,496.69 970.978,497.296 C969.336,497.906 967.642,498.34 965.986,498.868 C962.66,499.876 959.358,500.88 956.082,501.874 C942.94,505.66 930.024,508.47 917.706,510.516 C914.626,511.028 911.616,511.702 908.606,512.058 C905.6,512.44 902.638,512.814 899.728,513.184 C893.898,513.834 888.296,514.71 882.866,514.99 C877.45,515.382 872.26,515.76 867.324,516.118 C866.092,516.2 864.874,516.278 863.672,516.356 C862.468,516.382 861.282,516.412 860.112,516.44 C857.77,516.492 855.496,516.54 853.292,516.59 C848.892,516.676 844.774,516.76 840.964,516.834 C837.16,516.956 833.656,516.724 830.502,516.68 C829.56,516.656 828.66,516.632 827.778,516.608 C850.594,518.844 880.876,519.868 913.982,515.434 C961.614,509.058 1015.088,491.396 1060.586,449.796 C1096.084,417.342 1113.974,380.092 1122.684,347.134 C1127.912,327.358 1129.836,309.126 1130.264,294.412 C1130.898,272.618 1128.264,258.526 1128.264,258.526 L1111.834,253.17 L1110.8,252.92 L1101.95,250.122 L1101.95,250.286 C1101.95,430.64 945.95,478.408 801.95,484.908" fill="#ADADA9"/>
    <path d="M518.364,270.7 C519.688,270.7 520.762,271.772 520.762,273.096 C520.762,274.42 519.688,275.494 518.364,275.494 C517.04,275.494 515.964,274.42 515.964,273.096 C515.964,271.772 517.04,270.7 518.364,270.7 M655.056,194.21 C657.356,194.21 659.22,196.076 659.22,198.376 C659.22,200.676 657.356,202.54 655.056,202.54 C652.756,202.54 650.89,200.676 650.89,198.376 C650.89,196.076 652.756,194.21 655.056,194.21 M113.212,609.08 C111.12,609.08 109.426,607.386 109.426,605.294 C109.426,603.202 111.12,601.508 113.212,601.508 C115.304,601.508 116.998,603.202 116.998,605.294 C116.998,607.386 115.304,609.08 113.212,609.08 M87.476,650.016 C101.872,638.436 116.758,626.464 127.872,610.49 C133.816,603.054 139.898,595.45 142.868,589.544 C150.714,568.316 165.156,554.316 180.488,541.94 C184.028,539.082 187.614,536.312 191.174,533.56 C193.406,531.838 195.636,530.114 197.852,528.374 C209.628,518.642 221.222,509.02 232.692,499.496 C289.008,452.734 342.204,408.564 403.872,363.256 C413.318,355.908 422.142,348.284 430.674,340.908 C446.986,326.818 462.392,313.502 481.256,302.58 C511.66,285.512 542.56,269.978 572.442,254.952 C575.304,253.514 578.156,252.076 580.996,250.65 C581.364,250.464 581.726,250.282 582.092,250.098 C584.53,248.868 586.962,247.646 589.384,246.42 C590.498,245.86 591.606,245.298 592.716,244.736 C594.424,243.872 596.134,243.01 597.834,242.146 C598.894,241.61 599.946,241.072 601.002,240.536 C602.728,239.658 604.458,238.78 606.174,237.9 C607.35,237.3 608.518,236.7 609.69,236.098 C611.286,235.28 612.884,234.462 614.472,233.642 C615.714,233.002 616.948,232.362 618.186,231.72 C619.694,230.938 621.206,230.158 622.708,229.374 C623.972,228.714 625.23,228.05 626.492,227.388 C627.966,226.618 629.444,225.846 630.91,225.072 C632.172,224.404 633.428,223.732 634.686,223.064 C636.142,222.288 637.602,221.516 639.052,220.74 C640.316,220.06 641.572,219.376 642.834,218.696 C644.276,217.916 645.72,217.142 647.156,216.358 C648.414,215.67 649.664,214.978 650.918,214.288 C652.348,213.502 653.78,212.72 655.206,211.928 C656.472,211.224 657.734,210.512 658.998,209.802 C660.402,209.016 661.806,208.232 663.206,207.44 C664.474,206.72 665.734,205.99 667,205.268 C668.39,204.47 669.782,203.678 671.17,202.872 C672.432,202.142 673.69,201.4 674.948,200.662 C676.328,199.854 677.708,199.05 679.08,198.236 C680.348,197.486 681.608,196.72 682.872,195.96 C684.236,195.146 685.598,194.326 686.96,193.502 C688.21,192.74 689.458,191.964 690.708,191.196 C692.074,190.356 693.44,189.518 694.8,188.666 C696.042,187.892 697.28,187.104 698.518,186.322 C699.638,185.612 700.758,184.904 701.876,184.188 C697.286,178.694 692.53,173.712 687.714,169.36 C516.066,244.956 165.438,501.762 20.09,676.054 C20.77,676.158 21.482,676.264 22.224,676.376 C22.976,676.492 23.756,676.612 24.568,676.736 C25.374,676.874 26.178,677.114 27.022,677.308 C27.864,677.516 28.732,677.73 29.624,677.952 C30.51,678.188 31.386,678.518 32.3,678.81 C33.21,679.116 34.144,679.428 35.1,679.748 C36.024,680.128 36.968,680.518 37.934,680.916 C41.684,682.424 45.516,684.434 49.464,686.666 C59.946,672.162 73.898,660.936 87.476,650.016" fill="#312118"/>
    <path d="M45.546,692.538 C41.938,690.762 38.466,689.184 35.168,688.066 C34.274,687.752 33.398,687.444 32.544,687.142 C31.678,686.904 30.832,686.672 30.006,686.446 C29.182,686.232 28.384,685.972 27.6,685.81 C26.816,685.662 26.054,685.518 25.314,685.378 C24.576,685.25 23.866,685.072 23.176,684.994 C22.488,684.928 21.826,684.866 21.188,684.804 C20.554,684.74 19.944,684.68 19.362,684.622 C18.782,684.588 18.236,684.622 17.714,684.618 C16.674,684.636 15.742,684.604 14.946,684.648 C14.746,684.674 14.576,684.696 14.392,684.718 C11.304,697.308 18.108,718.286 31.894,738.39 C31.902,738.096 31.93,737.812 31.938,737.52 C31.982,736.12 32.048,734.736 32.148,733.368 C32.186,732.84 32.234,732.316 32.282,731.794 C32.404,730.398 32.546,729.012 32.73,727.642 C32.788,727.21 32.858,726.786 32.922,726.358 C33.108,725.108 33.316,723.87 33.552,722.642 C33.63,722.23 33.706,721.816 33.79,721.406 C34.07,720.058 34.386,718.726 34.726,717.406 C34.83,717.008 34.926,716.61 35.034,716.212 C35.406,714.858 35.814,713.516 36.252,712.184 C36.382,711.786 36.514,711.386 36.65,710.992 C37.108,709.66 37.6,708.342 38.126,707.036 C38.272,706.672 38.424,706.31 38.578,705.948 C39.136,704.618 39.722,703.292 40.352,701.986 C40.492,701.696 40.64,701.408 40.784,701.118 C41.424,699.826 42.094,698.542 42.806,697.272 C42.868,697.162 42.918,697.048 42.98,696.94 C43.796,695.436 44.66,693.976 45.546,692.538" fill="#312118"/>
    <path d="M569.86,316.514 C568.326,316.514 567.082,315.272 567.082,313.736 C567.082,312.204 568.326,310.962 569.86,310.962 C571.394,310.962 572.638,312.204 572.638,313.736 C572.638,315.272 571.394,316.514 569.86,316.514 M145.776,729.07 C149.122,729.07 151.834,731.784 151.834,735.128 C151.834,738.474 149.122,741.188 145.776,741.188 C142.43,741.188 139.718,738.474 139.718,735.128 C139.718,731.784 142.43,729.07 145.776,729.07 M261.642,538.652 C264.568,538.652 266.946,541.028 266.946,543.952 C266.946,546.88 264.568,549.254 261.642,549.254 C258.714,549.254 256.34,546.88 256.34,543.952 C256.34,541.028 258.714,538.652 261.642,538.652 M429.004,382.778 C430.326,382.778 431.402,383.852 431.402,385.176 C431.402,386.5 430.326,387.572 429.004,387.572 C427.68,387.572 426.606,386.5 426.606,385.176 C426.606,383.852 427.68,382.778 429.004,382.778 M497.16,335.7 C499.95,335.7 502.208,337.958 502.208,340.748 C502.208,343.536 499.95,345.798 497.16,345.798 C494.372,345.798 492.11,343.536 492.11,340.748 C492.11,337.958 494.372,335.7 497.16,335.7 M663.008,264.888 C667.398,264.888 670.958,268.452 670.958,272.844 C670.958,277.232 667.398,280.794 663.008,280.794 C658.618,280.794 655.056,277.232 655.056,272.844 C655.056,268.452 658.618,264.888 663.008,264.888 M711.098,211.336 C710.324,211.978 709.552,212.622 708.774,213.256 C707.956,213.922 707.13,214.578 706.308,215.232 C705.53,215.856 704.754,216.478 703.968,217.092 C703.132,217.748 702.292,218.392 701.45,219.04 C700.664,219.642 699.884,220.248 699.096,220.844 C698.24,221.486 697.378,222.126 696.518,222.766 C695.734,223.346 694.952,223.93 694.16,224.506 C693.284,225.146 692.396,225.78 691.51,226.412 C690.728,226.97 689.95,227.534 689.162,228.088 C688.268,228.72 687.366,229.34 686.466,229.962 C685.676,230.508 684.888,231.056 684.094,231.596 C683.184,232.216 682.266,232.828 681.348,233.444 C680.56,233.97 679.772,234.5 678.98,235.022 C678.05,235.634 677.112,236.24 676.174,236.848 C675.384,237.36 674.596,237.872 673.802,238.38 C672.856,238.982 671.902,239.582 670.95,240.18 C670.16,240.674 669.374,241.172 668.58,241.664 C667.614,242.262 666.638,242.854 665.666,243.446 C664.878,243.924 664.092,244.408 663.302,244.884 C662.318,245.47 661.33,246.056 660.342,246.638 C659.556,247.106 658.772,247.572 657.982,248.036 C656.984,248.618 655.978,249.194 654.974,249.772 C654.186,250.224 653.4,250.68 652.612,251.13 C651.598,251.704 650.578,252.274 649.562,252.842 C648.778,253.282 647.994,253.724 647.208,254.16 C646.174,254.732 645.134,255.298 644.098,255.864 C643.318,256.286 642.542,256.716 641.762,257.138 C640.718,257.7 639.67,258.256 638.624,258.81 C637.84,259.228 637.06,259.646 636.278,260.06 C635.228,260.614 634.176,261.158 633.126,261.704 C632.336,262.116 631.548,262.53 630.758,262.938 C629.702,263.478 628.64,264.018 627.582,264.556 C626.792,264.958 626.004,265.364 625.214,265.762 C624.156,266.294 623.094,266.822 622.036,267.35 C621.234,267.75 620.434,268.15 619.632,268.548 C618.566,269.072 617.494,269.596 616.422,270.118 C615.632,270.506 614.84,270.892 614.048,271.28 C612.96,271.806 611.872,272.328 610.782,272.85 C609.994,273.228 609.21,273.608 608.422,273.982 C607.356,274.49 606.286,274.994 605.216,275.498 C604.402,275.884 603.59,276.268 602.778,276.646 C601.722,277.142 600.666,277.634 599.612,278.122 C598.782,278.508 597.956,278.892 597.126,279.278 C596.06,279.77 594.996,280.256 593.932,280.742 C593.11,281.122 592.286,281.5 591.458,281.876 C590.422,282.348 589.382,282.814 588.344,283.286 C587.486,283.676 586.628,284.064 585.77,284.454 C584.71,284.93 583.65,285.404 582.588,285.876 C581.762,286.248 580.936,286.618 580.112,286.986 C579.016,287.474 577.924,287.958 576.83,288.442 C576.024,288.802 575.216,289.16 574.406,289.518 C573.384,289.97 572.364,290.416 571.34,290.868 C570.464,291.252 569.59,291.638 568.712,292.024 C567.656,292.486 566.602,292.948 565.544,293.408 C564.708,293.774 563.872,294.138 563.036,294.504 C562.204,294.868 561.372,295.228 560.536,295.592 C555.692,297.7 550.848,299.798 546.024,301.888 C532.114,307.904 517.73,314.13 503.844,320.418 C456.072,342.896 418.92,370.65 388.386,406.878 C384.028,412.052 379.798,417.402 375.696,422.932 C366.554,435.5 354.356,443.612 341.438,452.198 C337.138,455.056 332.692,458.012 328.418,461.118 C270.386,501.566 234.742,539.454 209.212,587.826 C197.214,611.824 178.46,630.148 158.606,649.546 C148.536,659.386 138.118,669.564 128.75,680.494 C115.174,696.16 104.714,712.21 97.09,729.022 C100.122,732.796 103.014,736.59 105.63,740.4 C108.528,744.492 111.054,748.642 113.368,752.612 C115.616,756.62 117.608,760.49 119.17,764.188 C119.56,765.11 119.942,766.016 120.314,766.898 C120.664,767.792 120.96,768.686 121.274,769.542 C121.932,771.248 122.38,772.928 122.822,774.496 C123.682,777.64 124.1,780.46 124.282,782.788 C124.416,783.95 124.296,785.006 124.318,785.908 C124.352,786.82 124.204,787.572 124.106,788.188 L123.814,790.074 C123.814,790.074 123.88,789.412 124.004,788.176 C124.07,787.556 124.176,786.792 124.094,785.892 C124.024,784.996 124.086,783.966 123.894,782.824 C123.59,780.536 123.03,777.784 122.018,774.732 C121.5,773.21 120.972,771.588 120.232,769.942 C119.88,769.114 119.54,768.254 119.152,767.392 C118.738,766.54 118.314,765.67 117.882,764.782 C116.152,761.228 113.986,757.528 111.564,753.702 C109.074,749.918 106.38,745.97 103.31,742.102 C100.878,738.934 98.234,735.79 95.478,732.67 C91.878,741.114 88.978,749.752 86.758,758.634 C84.792,765.19 82.336,774.736 82.19,783.58 C97.372,791.332 112.972,795.056 128.754,794.628 C150.68,784.156 167.242,751.854 190.128,707.214 C215.814,657.12 247.778,594.778 303.578,528.044 C369.762,448.898 452.34,384.22 556.036,330.314 C575.192,320.138 596.42,318 610.854,318 C619.302,318 625.274,318.724 627.084,318.974 C635.164,313.948 721.98,259.966 738.756,251.09 C736.724,243.168 729.6,225.224 717.51,205.892 C716.95,206.384 716.378,206.862 715.814,207.348 C715.046,208.012 714.28,208.674 713.506,209.328 C712.708,210.004 711.902,210.67 711.098,211.336" fill="#7F5C39"/>
    <path d="M82.504,719.288 C80.628,717.452 78.624,715.756 76.688,714.002 C74.704,712.308 72.72,710.622 70.712,709.016 C68.674,707.44 66.698,705.822 64.634,704.374 C63.618,703.636 62.602,702.904 61.596,702.176 C60.568,701.486 59.546,700.802 58.534,700.122 C56.534,698.724 54.448,697.55 52.464,696.308 C51.044,695.48 49.632,694.702 48.236,693.944 C47.338,695.398 46.458,696.876 45.63,698.406 C38.138,711.662 34.634,726.122 34.912,742.622 C47.034,758.998 62.602,772.854 79.004,781.894 C79.418,773.162 81.86,764.102 83.742,757.832 C86.114,748.348 89.27,739.136 93.212,730.138 C89.786,726.446 86.252,722.756 82.504,719.288" fill="#664628"/>
    <path d="M97.31,683.294 C92.71,683.294 88.978,679.566 88.978,674.964 C88.978,670.366 92.71,666.634 97.31,666.634 C101.91,666.634 105.64,670.366 105.64,674.964 C105.64,679.566 101.91,683.294 97.31,683.294 M183.64,583.332 C185.312,583.332 186.67,584.69 186.67,586.362 C186.67,588.036 185.312,589.39 183.64,589.39 C181.968,589.39 180.612,588.036 180.612,586.362 C180.612,584.69 181.968,583.332 183.64,583.332 M319.954,440.962 C321.626,440.962 322.98,442.318 322.98,443.992 C322.98,445.664 321.626,447.022 319.954,447.022 C318.28,447.022 316.924,445.664 316.924,443.992 C316.924,442.318 318.28,440.962 319.954,440.962 M601.668,264.89 C600.344,264.89 599.27,263.818 599.27,262.494 C599.27,261.17 600.344,260.096 601.668,260.096 C602.99,260.096 604.064,261.17 604.064,262.494 C604.064,263.818 602.99,264.89 601.668,264.89 M156.488,647.38 C176.156,628.166 194.734,610.014 206.52,586.442 C232.304,537.584 268.23,499.374 326.66,458.652 C330.96,455.524 335.436,452.548 339.762,449.674 C352.444,441.242 364.426,433.28 373.254,421.138 C406.398,376.464 447.488,343.588 502.574,317.67 C516.504,311.36 530.898,305.13 544.816,299.104 C604.858,273.122 666.932,246.26 715.868,203.306 C712.012,197.33 707.964,191.704 703.816,186.552 C662.346,213.14 619.326,234.772 573.802,257.658 C547.684,270.79 520.784,284.314 494.152,298.896 C490.346,300.98 486.546,303.084 482.756,305.212 C478.106,307.904 473.662,310.752 469.36,313.722 C456.45,322.64 444.804,332.702 432.652,343.202 C426.234,348.752 419.648,354.44 412.73,360.072 C410.428,361.948 408.086,363.816 405.7,365.67 C344.066,410.952 290.906,455.094 234.626,501.826 C223.152,511.352 211.562,520.976 199.752,530.732 C197.502,532.502 195.266,534.228 193.028,535.956 C174.346,550.388 155.026,565.312 145.684,590.67 L145.616,590.826 C142.516,597.028 136.306,604.79 130.298,612.298 C119.702,627.536 105.806,639.132 92.11,650.174 C91.198,650.91 90.286,651.642 89.376,652.374 C75.44,663.582 62.134,674.286 52.048,688.226 C53.352,689.03 54.662,689.852 55.976,690.712 C57.984,692.124 60.098,693.474 62.1,695.036 C63.114,695.798 64.138,696.566 65.168,697.342 C66.168,698.148 67.176,698.962 68.188,699.784 C70.238,701.394 72.188,703.166 74.194,704.898 C76.172,706.664 78.11,708.5 80.052,710.344 C81.936,712.246 83.892,714.086 85.71,716.066 C88.93,719.386 91.966,722.87 94.9,726.366 C102.608,709.812 113.06,693.972 126.456,678.518 C135.908,667.492 146.372,657.268 156.488,647.38" fill="#664628"/>
    <path d="M663.008,280.794 C667.398,280.794 670.958,277.234 670.958,272.842 C670.958,268.452 667.398,264.89 663.008,264.89 C658.616,264.89 655.056,268.452 655.056,272.842 C655.056,277.234 658.616,280.794 663.008,280.794" fill="#BA9568"/>
    <path d="M569.86,310.96 C568.326,310.96 567.082,312.202 567.082,313.736 C567.082,315.272 568.326,316.514 569.86,316.514 C571.394,316.514 572.638,315.272 572.638,313.736 C572.638,312.202 571.394,310.96 569.86,310.96" fill="#BA9568"/>
    <path d="M497.16,345.796 C499.95,345.796 502.208,343.536 502.208,340.748 C502.208,337.958 499.95,335.7 497.16,335.7 C494.372,335.7 492.114,337.958 492.114,340.748 C492.114,343.536 494.372,345.796 497.16,345.796" fill="#BA9568"/>
    <path d="M655.054,202.54 C657.356,202.54 659.22,200.674 659.22,198.376 C659.22,196.076 657.356,194.21 655.054,194.21 C652.756,194.21 650.888,196.076 650.888,198.376 C650.888,200.674 652.756,202.54 655.054,202.54" fill="#BA9568"/>
    <path d="M601.668,260.096 C600.344,260.096 599.27,261.17 599.27,262.494 C599.27,263.818 600.344,264.888 601.668,264.888 C602.99,264.888 604.064,263.818 604.064,262.494 C604.064,261.17 602.99,260.096 601.668,260.096" fill="#BA9568"/>
    <path d="M429.004,387.572 C430.328,387.572 431.402,386.5 431.402,385.176 C431.402,383.854 430.328,382.78 429.004,382.78 C427.68,382.78 426.606,383.854 426.606,385.176 C426.606,386.5 427.68,387.572 429.004,387.572" fill="#BA9568"/>
    <path d="M518.364,275.494 C519.688,275.494 520.762,274.42 520.762,273.096 C520.762,271.772 519.688,270.702 518.364,270.702 C517.04,270.702 515.964,271.772 515.964,273.096 C515.964,274.42 517.04,275.494 518.364,275.494" fill="#BA9568"/>
    <path d="M97.31,666.634 C92.71,666.634 88.978,670.366 88.978,674.964 C88.978,679.566 92.71,683.294 97.31,683.294 C101.91,683.294 105.64,679.566 105.64,674.964 C105.64,670.366 101.91,666.634 97.31,666.634" fill="#BA9568"/>
    <path d="M145.776,741.188 C149.122,741.188 151.834,738.474 151.834,735.128 C151.834,731.784 149.122,729.07 145.776,729.07 C142.43,729.07 139.718,731.784 139.718,735.128 C139.718,738.474 142.43,741.188 145.776,741.188" fill="#BA9568"/>
    <path d="M183.64,589.39 C185.312,589.39 186.672,588.036 186.672,586.362 C186.672,584.69 185.312,583.332 183.64,583.332 C181.968,583.332 180.61,584.69 180.61,586.362 C180.61,588.036 181.968,589.39 183.64,589.39" fill="#BA9568"/>
    <path d="M319.954,447.022 C321.626,447.022 322.984,445.664 322.984,443.992 C322.984,442.318 321.626,440.962 319.954,440.962 C318.282,440.962 316.922,442.318 316.922,443.992 C316.922,445.664 318.282,447.022 319.954,447.022" fill="#BA9568"/>
    <path d="M261.64,549.254 C264.57,549.254 266.944,546.88 266.944,543.952 C266.944,541.028 264.57,538.652 261.64,538.652 C258.714,538.652 256.342,541.028 256.342,543.952 C256.342,546.88 258.714,549.254 261.64,549.254" fill="#BA9568"/>
    <path d="M113.212,601.508 C111.122,601.508 109.426,603.202 109.426,605.294 C109.426,607.386 111.122,609.08 113.212,609.08 C115.304,609.08 117,607.386 117,605.294 C117,603.202 115.304,601.508 113.212,601.508" fill="#BA9568"/>
    <path d="M776.348,100.432 C773.838,100.432 771.804,102.466 771.804,104.974 C771.804,107.486 773.838,109.52 776.348,109.52 C778.86,109.52 780.89,107.486 780.89,104.974 C780.89,102.466 778.86,100.432 776.348,100.432" fill="#2D2E2C"/>
    <path d="M1052.004,289.756 C1054.514,289.756 1056.544,287.72 1056.544,285.212 C1056.544,282.704 1054.514,280.668 1052.004,280.668 C1049.494,280.668 1047.458,282.704 1047.458,285.212 C1047.458,287.72 1049.494,289.756 1052.004,289.756" fill="#2D2E2C"/>
    <path d="M757.67,168.084 C755.996,168.084 754.64,169.444 754.64,171.114 C754.64,172.786 755.996,174.142 757.67,174.142 C759.342,174.142 760.7,172.786 760.7,171.114 C760.7,169.444 759.342,168.084 757.67,168.084" fill="#2D2E2C"/>
    <path d="M859.146,190.802 C857.472,190.802 856.118,192.16 856.118,193.834 C856.118,195.506 857.472,196.862 859.146,196.862 C860.82,196.862 862.176,195.506 862.176,193.834 C862.176,192.16 860.82,190.802 859.146,190.802" fill="#2D2E2C"/>
    <path d="M839.458,327.116 C837.784,327.116 836.428,328.474 836.428,330.146 C836.428,331.818 837.784,333.174 839.458,333.174 C841.128,333.174 842.486,331.818 842.486,330.146 C842.486,328.474 841.128,327.116 839.458,327.116" fill="#2D2E2C"/>
    <path d="M903.07,240.584 C898.636,240.584 895.042,244.178 895.042,248.612 C895.042,253.044 898.636,256.638 903.07,256.638 C907.502,256.638 911.096,253.044 911.096,248.612 C911.096,244.178 907.502,240.584 903.07,240.584" fill="#2D2E2C"/>
    <path d="M874.796,402.34 C871.452,402.34 868.738,405.052 868.738,408.398 C868.738,411.744 871.452,414.456 874.796,414.456 C878.142,414.456 880.856,411.744 880.856,408.398 C880.856,405.052 878.142,402.34 874.796,402.34" fill="#2D2E2C"/>
    <g clip-path="url(#Clip_1)">
      <path d="M830.502,516.68 C833.658,516.724 837.16,516.956 840.964,516.834 C844.774,516.76 848.892,516.676 853.294,516.59 C855.496,516.54 857.77,516.492 860.112,516.44 C861.282,516.412 862.468,516.382 863.672,516.356 C864.876,516.278 866.092,516.198 867.324,516.118 C872.26,515.76 877.45,515.382 882.866,514.99 C888.296,514.71 893.898,513.834 899.728,513.184 C902.638,512.814 905.6,512.44 908.606,512.058 C911.616,511.702 914.626,511.028 917.706,510.516 C930.024,508.47 942.94,505.66 956.082,501.874 C959.358,500.88 962.66,499.876 965.986,498.868 C967.642,498.34 969.336,497.906 970.978,497.296 C972.626,496.69 974.274,496.082 975.932,495.47 C979.242,494.25 982.576,493.022 985.926,491.786 C987.614,491.202 989.216,490.382 990.864,489.668 C992.502,488.932 994.144,488.194 995.79,487.452 C997.436,486.712 999.084,485.968 1000.734,485.224 L1003.214,484.108 L1005.628,482.84 C1008.848,481.138 1012.076,479.43 1015.31,477.718 L1017.738,476.434 C1018.538,475.99 1019.304,475.484 1020.09,475.012 L1024.784,472.122 L1029.48,469.228 C1030.26,468.738 1031.056,468.278 1031.82,467.762 L1034.068,466.156 L1043.014,459.666 C1045.94,457.434 1048.702,454.986 1051.542,452.662 C1052.938,451.468 1054.388,450.342 1055.734,449.1 L1059.71,445.302 L1063.668,441.518 C1064.32,440.88 1064.994,440.268 1065.628,439.618 L1067.472,437.604 C1069.916,434.918 1072.354,432.242 1074.778,429.58 C1077.002,426.748 1079.214,423.932 1081.414,421.132 C1081.958,420.43 1082.524,419.744 1083.046,419.028 L1084.55,416.838 C1085.552,415.38 1086.546,413.928 1087.542,412.48 C1088.522,411.028 1089.548,409.61 1090.48,408.14 C1091.376,406.646 1092.266,405.16 1093.152,403.678 C1100.334,391.884 1105.96,379.728 1110.186,367.872 C1114.494,356.04 1117.552,344.54 1119.69,333.826 C1121.792,323.104 1123.094,313.19 1123.846,304.388 C1124.606,295.584 1124.89,287.9 1124.96,281.578 C1125.02,278.418 1125.04,275.6 1124.978,273.142 C1124.946,270.69 1124.928,268.606 1124.87,266.916 C1124.762,263.54 1124.704,261.736 1124.704,261.736 C1124.704,261.736 1124.55,263.534 1124.264,266.9 C1123.986,270.27 1123.54,275.198 1122.868,281.452 C1122.232,287.708 1121.194,295.268 1119.842,303.884 C1119.092,308.182 1118.32,312.752 1117.256,317.52 C1116.32,322.306 1115.06,327.28 1113.786,332.462 C1113.062,335.032 1112.324,337.65 1111.574,340.322 C1110.832,342.996 1109.864,345.65 1108.996,348.388 C1108.54,349.746 1108.114,351.13 1107.63,352.504 C1107.126,353.868 1106.614,355.246 1106.098,356.634 C1105.048,359.396 1104.098,362.246 1102.836,365.016 C1098.282,376.29 1092.302,387.65 1085.236,398.772 C1078.112,409.854 1069.792,420.698 1060.084,430.534 L1058.32,432.432 C1057.71,433.044 1057.062,433.622 1056.436,434.22 L1052.64,437.786 L1048.836,441.366 C1047.546,442.536 1046.15,443.594 1044.812,444.716 C1042.084,446.906 1039.446,449.214 1036.64,451.318 L1028.056,457.43 L1025.922,458.97 C1025.198,459.47 1024.438,459.916 1023.698,460.39 L1019.23,463.194 L1014.766,465.998 C1014.02,466.456 1013.292,466.95 1012.528,467.38 L1010.21,468.63 C1007.12,470.3 1004.036,471.964 1000.96,473.624 L998.652,474.866 L996.274,475.96 C994.69,476.69 993.106,477.418 991.528,478.144 C988.352,479.562 985.262,481.132 982.056,482.41 C978.848,483.688 975.656,484.958 972.482,486.22 C970.896,486.856 969.314,487.486 967.736,488.116 C966.162,488.748 964.526,489.21 962.932,489.766 C959.724,490.83 956.542,491.888 953.384,492.936 C940.67,496.866 928.196,500.22 916.198,502.746 C913.2,503.376 910.274,504.17 907.33,504.646 C904.392,505.162 901.5,505.672 898.656,506.17 C892.962,507.152 887.492,508.352 882.154,508.944 C871.51,510.342 861.754,511.85 853.032,512.54 C844.322,513.368 836.726,514.288 830.442,514.572 C825.152,514.902 820.826,515.238 817.574,515.478 C816.966,515.524 816.38,515.566 815.852,515.602 C814.786,515.686 813.894,515.754 813.15,515.812 C811.542,515.94 810.68,516.006 810.68,516.006 C810.68,516.006 812.48,516.078 815.856,516.21 C816.106,516.218 816.382,516.23 816.652,516.238 C819.454,516.33 823.194,516.48 827.778,516.608 C828.66,516.632 829.56,516.656 830.502,516.68" fill="#F4F4F2"/>
      <path d="M1130.28,294.412 C1129.906,312.454 1127.346,330.118 1122.692,347.134 C1113.982,380.092 1096.09,417.342 1060.592,449.796 C1015.092,491.396 961.616,509.366 913.984,515.74 C897.712,518.068 880.852,519.58 863.486,519.58 L863.464,519.58 C848.228,519.58 832.518,518.366 816.652,516.544 C816.382,516.536 816.106,516.372 815.856,516.366 C812.48,516.232 810.68,516.084 810.68,516.084 C810.68,516.084 811.542,515.978 813.15,515.852 C812.262,515.744 811.376,515.624 810.486,515.51 L780.616,426.75 L782.292,417.49 L776.482,414.458 L763.62,376.238 C776.642,364.306 783.638,348.73 784.422,329.872 C784.932,317.626 782.81,304.53 778.798,291.056 C776.012,279.724 771.478,268.026 765.71,256.266 L765.242,250.122 L761.418,247.912 C756.404,238.576 750.702,229.254 744.562,220.108 C711.84,168.354 669.172,123.1 657.958,111.54 L755.69,11.896 L912.522,167.238 L912.942,167.652 L913.47,167.918 C913.94,168.156 930.618,176.612 955.614,188.534 L958.198,194.462 C958.198,194.462 960.048,193.982 963.022,192.048 C996.902,208.076 1042.864,229.022 1085.054,245.022 L1101.95,250.286 L1101.95,250.122 L1110.8,252.92 L1111.694,253.154 C1111.694,253.154 1111.766,253.166 1111.768,253.17 L1128.23,258.526 C1128.23,258.526 1130.914,272.618 1130.28,294.412 M19.364,684.62 C19.946,684.68 20.552,684.74 21.19,684.804 C21.826,684.866 22.488,684.928 23.176,684.994 C23.866,685.072 24.576,685.25 25.316,685.378 C26.052,685.518 26.816,685.662 27.602,685.81 C28.384,685.972 29.182,686.232 30.006,686.446 C30.83,686.672 31.676,686.904 32.542,687.142 C33.4,687.444 34.274,688.052 35.166,688.366 C38.394,689.458 41.786,690.098 45.306,692.954 C44.508,694.264 43.722,695.578 42.988,696.94 C42.922,697.05 42.868,697.16 42.804,697.272 C42.092,698.542 41.424,699.826 40.784,701.118 C40.642,701.408 40.492,701.696 40.352,701.986 C39.72,703.292 39.134,704.618 38.578,705.948 C38.424,706.31 38.274,706.672 38.126,707.036 C37.6,708.342 37.11,709.66 36.652,710.992 C36.514,711.386 36.38,711.786 36.252,712.184 C35.816,713.516 35.406,714.858 35.034,716.212 C34.926,716.61 34.83,717.008 34.728,717.406 C34.386,718.726 34.07,720.058 33.79,721.406 C33.706,721.816 33.63,722.23 33.55,722.642 C33.318,723.868 33.108,725.108 32.92,726.358 C32.86,726.786 32.788,727.21 32.732,727.642 C32.546,729.012 32.406,730.398 32.282,731.794 C32.236,732.316 32.186,732.84 32.15,733.368 C32.048,734.736 31.984,736.118 31.94,737.52 C31.93,737.812 31.902,738.096 31.896,738.39 C18.108,718.286 11.302,697.308 14.392,684.718 C14.576,684.696 14.746,684.674 14.946,684.648 C15.742,684.604 16.674,684.636 17.712,684.618 C18.236,684.62 18.782,684.588 19.364,684.62 M687.712,169.362 C692.53,173.712 697.284,178.694 701.876,184.19 C700.758,184.904 699.638,185.612 698.518,186.32 C697.28,187.104 696.042,187.892 694.8,188.668 C693.44,189.518 692.072,190.358 690.708,191.198 C689.458,191.962 688.21,192.74 686.958,193.502 C685.6,194.328 684.234,195.144 682.872,195.958 C681.61,196.72 680.35,197.484 679.082,198.234 C677.708,199.048 676.328,199.854 674.95,200.662 C673.69,201.4 672.434,202.142 671.172,202.872 C669.784,203.678 668.39,204.47 667,205.268 C665.734,205.992 664.472,206.72 663.206,207.44 C661.806,208.232 660.4,209.016 658.998,209.802 C657.734,210.512 656.47,211.224 655.204,211.928 C653.78,212.72 652.348,213.504 650.918,214.286 C649.664,214.978 648.414,215.672 647.156,216.358 C645.718,217.138 644.276,217.918 642.834,218.698 C641.572,219.376 640.316,220.06 639.05,220.738 C637.602,221.516 636.14,222.286 634.686,223.062 C633.428,223.732 632.174,224.404 630.91,225.07 C629.444,225.846 627.966,226.618 626.492,227.388 C625.23,228.048 623.97,228.712 622.706,229.372 C621.204,230.158 619.694,230.94 618.186,231.716 C616.948,232.362 615.712,233.004 614.472,233.642 C612.882,234.462 611.286,235.28 609.692,236.098 C608.518,236.702 607.35,237.298 606.176,237.9 C604.456,238.78 602.726,239.656 601.002,240.536 C599.946,241.072 598.894,241.612 597.836,242.146 C596.132,243.01 594.424,243.872 592.714,244.736 C591.606,245.298 590.5,245.862 589.384,246.422 C586.96,247.644 584.53,248.868 582.094,250.098 C581.726,250.284 581.364,250.462 580.996,250.65 C578.154,252.078 575.302,253.514 572.444,254.952 C542.562,269.976 511.66,285.512 481.254,302.582 C462.39,313.502 446.984,326.816 430.672,340.91 C422.14,348.284 413.32,355.908 403.874,363.256 C342.202,408.564 289.008,452.734 232.692,499.496 C221.22,509.02 209.63,518.642 197.852,528.374 C195.636,530.114 193.406,531.838 191.176,533.56 C187.614,536.312 184.028,539.082 180.488,541.94 C178.57,543.486 176.668,545.058 174.792,546.668 C161.648,557.93 149.734,570.97 142.87,589.544 C139.9,595.45 133.818,603.054 127.872,610.488 C116.756,626.464 101.872,638.436 87.478,650.016 C73.9,660.936 59.946,672.162 49.462,686.666 C45.516,684.434 41.684,682.424 37.936,680.916 C36.968,680.518 36.024,680.128 35.1,679.748 C34.144,679.428 33.21,679.116 32.3,678.81 C31.384,678.518 30.512,678.188 29.626,677.952 C28.732,677.73 27.864,677.516 27.024,677.308 C26.176,677.114 25.372,676.874 24.57,676.736 C23.756,676.612 22.976,676.492 22.222,676.376 C21.482,676.264 20.772,676.158 20.09,676.054 C165.436,501.762 516.066,244.954 687.712,169.362 M373.254,421.138 C364.426,433.28 352.446,441.242 339.762,449.674 C335.436,452.548 330.96,455.524 326.66,458.652 C268.23,499.374 232.304,537.584 206.52,586.442 C194.734,610.014 176.156,628.166 156.488,647.38 C146.372,657.268 135.908,667.492 126.456,678.518 C113.06,693.972 102.61,709.812 94.902,726.366 C91.964,722.868 88.93,719.386 85.71,716.066 C83.892,714.088 81.938,712.246 80.05,710.344 C78.112,708.5 76.17,706.664 74.194,704.898 C72.188,703.166 70.238,701.394 68.19,699.784 C67.174,698.962 66.168,698.148 65.166,697.342 C64.136,696.566 63.114,695.798 62.1,695.036 C60.098,693.474 57.984,692.124 55.978,690.712 C54.662,689.852 53.352,689.03 52.046,688.226 C62.132,674.286 75.44,663.582 89.374,652.374 C90.286,651.642 91.198,650.91 92.112,650.174 C105.804,639.132 119.702,627.536 130.296,612.298 C136.304,604.79 142.516,597.028 145.616,590.826 L145.684,590.672 C155.026,565.312 174.344,550.388 193.028,535.954 C195.266,534.228 197.5,532.502 199.75,530.732 C211.562,520.976 223.156,511.352 234.626,501.826 C290.906,455.094 344.07,410.952 405.7,365.672 C408.086,363.816 410.426,361.948 412.734,360.07 C419.648,354.444 426.234,348.752 432.656,343.204 C444.804,332.704 456.45,322.638 469.36,313.72 C473.66,310.75 478.108,307.904 482.754,305.212 C486.546,303.084 490.344,300.98 494.152,298.896 C520.784,284.314 547.684,270.79 573.802,257.658 C619.324,234.772 662.346,213.138 703.816,186.552 C707.964,191.704 712.012,197.328 715.868,203.306 C666.932,246.26 604.86,273.122 544.82,299.108 C530.898,305.13 516.504,311.362 502.574,317.668 C447.488,343.59 406.398,376.462 373.254,421.138 M34.912,742.62 C34.634,726.12 38.138,711.662 45.63,698.406 C46.438,696.916 47.292,695.48 48.166,694.062 C48.192,694.074 48.212,694.082 48.238,694.094 C49.632,694.854 51.042,695.556 52.464,696.384 C54.446,697.626 56.532,698.762 58.532,700.16 C59.546,700.84 60.57,701.506 61.598,702.196 C62.604,702.924 63.616,703.646 64.634,704.384 C66.696,705.832 68.674,707.444 70.712,709.02 C72.72,710.626 74.702,712.31 76.69,714.004 C78.622,715.758 80.628,717.452 82.504,719.29 C86.25,722.758 89.786,726.446 93.21,730.138 C89.272,739.136 86.114,748.348 83.742,757.832 C81.862,764.102 79.416,773.164 79.004,781.894 C62.604,772.854 47.034,758.998 34.912,742.62 M610.854,318 C596.42,318 575.194,320.138 556.036,330.316 C452.34,384.22 369.762,448.898 303.578,528.044 C247.78,594.778 215.812,657.118 190.128,707.214 C167.242,751.854 150.68,784.156 128.754,794.628 C112.972,795.056 97.374,791.332 82.192,783.58 C82.336,774.736 84.792,765.19 86.756,758.634 C88.98,749.752 91.878,741.114 95.48,732.67 C98.234,735.79 100.878,738.934 103.31,742.102 C106.38,745.972 109.076,749.918 111.566,753.702 C113.986,757.528 116.154,761.228 117.88,764.782 C118.316,765.67 118.738,766.54 119.152,767.392 C119.542,768.254 119.88,769.114 120.234,769.942 C120.972,771.588 121.5,773.21 122.018,774.732 C123.03,777.784 123.59,780.536 123.894,782.824 C124.088,783.966 124.024,784.996 124.092,785.892 C124.176,786.792 124.072,787.556 124.004,788.176 C123.88,789.412 123.816,790.074 123.816,790.074 L124.108,788.188 C124.204,787.572 124.352,786.82 124.318,785.908 C124.296,785.006 124.416,783.95 124.282,782.786 C124.102,780.46 123.684,777.64 122.822,774.496 C122.38,772.928 121.932,771.248 121.274,769.542 C120.962,768.686 120.662,767.792 120.316,766.898 C119.944,766.016 119.562,765.11 119.17,764.188 C117.61,760.49 115.616,756.618 113.368,752.612 C111.052,748.642 108.53,744.492 105.628,740.4 C103.014,736.59 100.122,732.796 97.088,729.022 C104.712,712.21 115.174,696.16 128.752,680.494 C138.12,669.564 148.534,659.388 158.608,649.546 C178.46,630.148 197.212,611.824 209.212,587.826 C234.742,539.452 270.384,501.566 328.418,461.118 C332.694,458.012 337.138,455.054 341.44,452.198 C354.356,443.612 366.554,435.5 375.696,422.932 C379.798,417.402 384.026,412.052 388.386,406.878 C418.922,370.65 456.074,342.898 503.844,320.418 C517.73,314.126 532.114,307.906 546.022,301.884 C550.85,299.794 555.69,297.702 560.536,295.592 C561.37,295.228 562.204,294.868 563.038,294.504 C563.872,294.138 564.708,293.776 565.542,293.408 C566.6,292.948 567.656,292.486 568.71,292.026 C569.586,291.638 570.464,291.252 571.342,290.868 C572.364,290.416 573.384,289.966 574.406,289.518 C575.214,289.16 576.024,288.798 576.83,288.444 C577.924,287.954 579.018,287.474 580.11,286.988 C580.936,286.618 581.762,286.248 582.59,285.876 C583.648,285.404 584.708,284.93 585.772,284.454 C586.628,284.066 587.486,283.676 588.346,283.286 C589.382,282.816 590.422,282.348 591.458,281.872 C592.286,281.5 593.108,281.118 593.932,280.742 C594.996,280.256 596.06,279.77 597.124,279.28 C597.954,278.894 598.782,278.508 599.612,278.122 C600.668,277.63 601.722,277.142 602.778,276.648 C603.592,276.268 604.402,275.88 605.214,275.498 C606.286,274.994 607.356,274.49 608.424,273.982 C609.208,273.608 609.996,273.228 610.782,272.85 C611.872,272.328 612.96,271.806 614.046,271.28 C614.842,270.894 615.63,270.506 616.424,270.118 C617.492,269.596 618.564,269.074 619.632,268.544 C620.436,268.15 621.232,267.75 622.034,267.35 C623.096,266.822 624.154,266.294 625.214,265.762 C626.006,265.366 626.792,264.958 627.582,264.556 C628.64,264.018 629.702,263.48 630.758,262.94 C631.548,262.53 632.336,262.116 633.126,261.704 C634.176,261.158 635.228,260.616 636.276,260.062 C637.058,259.648 637.84,259.23 638.622,258.812 C639.67,258.256 640.718,257.702 641.764,257.134 C642.542,256.712 643.318,256.286 644.098,255.866 C645.134,255.294 646.174,254.732 647.208,254.16 C647.996,253.724 648.778,253.284 649.562,252.842 C650.58,252.276 651.598,251.704 652.612,251.126 C653.4,250.68 654.188,250.224 654.972,249.772 C655.978,249.194 656.982,248.618 657.982,248.036 C658.772,247.574 659.554,247.108 660.342,246.638 C661.33,246.056 662.318,245.47 663.3,244.88 C664.094,244.408 664.878,243.924 665.666,243.448 C666.638,242.854 667.614,242.262 668.58,241.664 C669.374,241.172 670.16,240.674 670.948,240.18 C671.9,239.582 672.856,238.984 673.8,238.38 C674.596,237.872 675.384,237.362 676.174,236.848 C677.112,236.24 678.048,235.634 678.98,235.022 C679.774,234.5 680.558,233.97 681.348,233.444 C682.266,232.828 683.184,232.216 684.096,231.596 C684.888,231.056 685.676,230.508 686.464,229.962 C687.366,229.34 688.268,228.716 689.16,228.088 C689.95,227.534 690.728,226.97 691.512,226.412 C692.396,225.78 693.284,225.146 694.16,224.506 C694.952,223.93 695.732,223.346 696.518,222.766 C697.378,222.126 698.242,221.488 699.096,220.844 C699.882,220.248 700.666,219.642 701.45,219.04 C702.292,218.394 703.132,217.748 703.968,217.092 C704.754,216.478 705.53,215.858 706.308,215.234 C707.13,214.578 707.956,213.922 708.774,213.256 C709.552,212.618 710.322,211.978 711.098,211.336 C711.902,210.67 712.708,210.004 713.506,209.328 C714.28,208.674 715.046,208.012 715.814,207.348 C716.378,206.862 716.95,206.384 717.51,205.894 C729.6,225.224 736.724,243.168 738.756,251.09 C721.98,259.966 635.164,313.948 627.086,318.974 C625.274,318.724 619.3,318 610.854,318 M1135.522,256.41 L1135.18,253.996 L1132.842,253.306 C1053.898,230.066 926.68,166.114 917.428,161.444 L914.254,158.298 L856.876,74.81 L839.836,84.586 L755.612,1.16 L647.336,111.556 L647.82,112.044 L644.832,149.404 C644.832,149.404 652.926,154.91 664.766,164.93 C581.936,204.536 458.772,282.982 336.714,374.242 C193.21,481.536 72.166,590.56 4.618,673.362 L3.566,674.648 L2.9,676.172 C-4.13,692.298 1.802,717.04 18.77,742.944 C39.352,774.362 78.408,807.58 126.31,807.58 L126.32,807.58 C127.37,807.58 128.434,807.92 129.49,807.888 L131.988,808 L134.252,807.022 C160.542,794.716 178.04,760.63 202.258,713.394 C253.438,613.578 330.778,462.754 562.418,342.34 C579.11,333.47 597.968,331.618 610.854,331.618 C619.628,331.618 625.492,332.512 625.526,332.516 L629.984,333.22 L633.816,330.838 C659.534,314.832 725.922,273.776 743.196,264.186 C759.012,299.712 764.892,341.286 746.31,385.68 C748.802,389.172 774.19,444.6 791.23,482.034 L804.812,522.388 L807.144,522.208 C826.228,524.784 845.176,525.58 863.464,525.58 L863.486,525.58 C954.6,525.58 1032.596,494.064 1083.092,435.928 C1126.288,386.194 1144.906,322.768 1135.522,256.41" fill="#0A0B09"/>
    </g>
  </g>
</svg>
